# xmcd
# 
# Track frame offsets:
#     150
#     19098
#     41850
#     60798
# 
# Disc length: 1110
# 
# Revision: 3
# Processed by: cddbd v1.5.2PL0 Copyright (c) Steve Scherf et al.
# Submitted via: BonkEnc v1.0.6
# 
DISCID=28045404
DTITLE=hisoca - Make You Free
DYEAR=1991
DGENRE=Pop
TTITLE0=こんなもんじゃない！
TTITLE1=TIME IS ON MY SIDE
TTITLE2=こんなもんじゃない！(Instrumental)
TTITLE3=TIME IS ON MY SIDE (Instrumental)
EXTD=YEAR: 1991
EXTT0=
EXTT1=
EXTT2=
EXTT3=
PLAYORDER=
